<svg xmlns="http://www.w3.org/2000/svg"><symbol id="alert" viewBox="0 0 256 256"><path fill="#161616" fill-rule="evenodd" d="M158.9 106.4c18.6 29.1 16.5 39.2-14.6 71.7-9.9.7-18.8 10.7-29.7 3.3-2.9-16.6 9-27.4 18.3-42.1-22.4-4.9-44.8-7.3-59.6-25.5-8.6-6.9-13.5-14.2-8.4-26.2 3.9-9.2 5.4-19.4 7.4-29.4h-.1c14.1-12.6 28.7-15.5 44.4-2.7 4.4 3.5 9.7 4.9 15.4 5.7 28.4 3.9 32.2 9.4 26.4 38.4-.4 2.5-.7 4.6.5 6.8z"/><path fill="#333" fill-rule="evenodd" d="M72.3 58.2c.2 10.9 2.6 22.3-3.7 32.2-7.7 11.8 7.6 13.2 8.8 20.8 8.1 12.7 17.2 24.3 30.7 32.2 8.8 5.2 13.6 13.2 9.3 24.1-7.9 6.5-15.7 2.4-21.1-2.6-14.5-13.5-32.7-21.6-47.7-34.1-1.5-1.7-3-3.5-4.4-5.4 3.3-24.9 18-45 28.1-67.2z"/><path fill="#232323" fill-rule="evenodd" d="M158.9 106.4c-5.5-3.5-2.2-7.8-1.8-12.3 1.4-16 1.1-31-22.6-26.2-5.8 1.2-13.2 2.1-17.6-3.6-13.1-16.8-28.3-15.5-44.7-6 9.1-9.6 57.5-21.1 67.3-16 22.7 11.8 28.3 30.5 19.4 64.1z"/><path fill="#545454" fill-rule="evenodd" d="M44.2 125.4h4.5c2.7 4.9 7.4 8.6 9.1 14 6.2 19.1 19.6 28 39.3 28.7 6.3.3 12.7 1.3 17.3 6.7.4 1 .8 2.1 1.3 3.2 9.5 8.2 19.1-4 28.6 0-12.2 8.5-24.7 13.9-39.1 4.5-4.5-3-9.2-2.5-12 2.8-10.4 19.5-22.5 8.4-29.7-.7-13.3-16.8-27.8-34.6-19.3-59.2zm47.9 91.9c.4-4.8 2.4-8.1 7-7.6 6.7.8 8.9 6.3 8.5 11.8s-1.9 10.5-8 8.7-6.6-8-7.5-12.9z"/><path fill="#161616" fill-rule="evenodd" d="M172.6 166.5c5.5 1.2 8.1 4.7 8.1 9.8s-4 7.9-9.3 7.6-8.8-3.2-8-9 3.9-8.1 9.2-8.4z"/><path fill="#6b6b6b" fill-rule="evenodd" d="M47.3 194.8c-.6-3.8 1.5-4.9 3.8-4.3s4.2 1.9 4.7 3.5-1 4.5-3.7 3.9-3.5-2.2-4.8-3.1z"/><path fill="#232323" fill-rule="evenodd" d="M115.6 168.6c.9-9.8-2.4-18.9-11.4-21.6-18.5-5.5-22.3-20.6-26.8-35.8 14.2 12.3 29.8 20.7 49.4 19.3 6.4-.5 13.4.2 15.4 7.9s-4.6 9.4-9.3 12.1c-10.9 6.1-9.2 19.8-17.2 27.6h-.1c-2.6-3.2-3-6.4 0-9.5z"/><path fill="#444" fill-rule="evenodd" d="M115.6 168.6v9.6c-4.5-1.6-8.8-4-13.4-4.6-42.2-5.3-42.2-5.2-53.5-48.1z"/><path fill="#fff" d="M104.2 181.2c0-4.6 3.2-7.9 7.6-7.9s7.6 3.3 7.6 7.9-3 8-7.6 8-7.6-3.5-7.6-8zm3.2-18.4l-1.8-61.8h12.3l-1.8 61.8z"/></symbol><symbol id="fb" viewBox="0 0 256 256"><path fill="#232323" fill-rule="evenodd" d="M58.1 100.4C49.2 83.6 51.6 75.1 72 67s110.3-6.9 103.7 0 1.4 4.8-1 6.8c-6.9 4.4-14.8 4.1-22.6 4.3-17.9.2-35.9-.1-53.9.1-13.6.1-24.4 4.6-30.6 17.4-2.4 3.1-5.2 5.4-9.5 4.8z"/><path fill="#161616" fill-rule="evenodd" d="M171.4 72.8v-4.7h4.8c3.7 6.7 11.4 3.2 16.4 6.4s4.6 6.7-1.9 8c-4.4 3.7-1.5 10-5 14v9.2c-12.9.3-15.4-11.1-21.3-18.8-1.9-6.8 1.8-10.8 7-14.1z"/><path fill="#444" fill-rule="evenodd" d="M58.1 100.4l5-5.2c19.5-22.1 47.3-17.9 68.5-11.9s41.4 20 61.5 31.5c11.1 10.9 12.4 23.5 6.5 37.4-.2 3.8-1.4 7.1-5.2 8.9-4.6 4.9-3.7 12.1-6.8 17.6-7.1 7.5-18.8 11.3-25.4 7.4-18.3-10.6-23.6-.2-28.7 13.5-35.8 18.5-33.6 15.5-62.5-14.7-26.3-27.6-27.5-53.5-12.9-84.5z"/><path fill="#333" fill-rule="evenodd" d="M189.9 118.8c-5.8 1.1-5.3-21.9-16.9-3.6-4.5 7-9.2-4-13.3-7.8-25.5-23.6-68.8-29.1-96.6-12.2C66.4 78 77.3 71.1 94.3 71.6c19.3.5 38.5.4 57.8.5 6.2 4.7 9.5 13.4 19 13.5 9.4 3.3 11.4 13.8 18.8 19l5 4.5c2.8 5.6-1.7 7.3-5 9.7zm-56.4 80.8c6.9-12.8-9.4-7.6-11.9-15.9 16.1.1 29.2-6.2 38.7-17.9 8.5 7.8-1.1 11.4.4 17.7 9.2 1.4 17-2.8 24.4-8 8.8-.6 7.6 4 4.8 9.3z"/><path fill="#232323" fill-rule="evenodd" d="M189.9 118.8l5-9.7c12.8 13.1 27.1 26.1 4.7 43.1-3-11.2.6-24.3-9.7-33.4zm0 66c-.3-3.7-1-7.4-4.8-9.3 0-6.8 2.5-12 9.4-14.4-5.1 7.2 12.8 18.9-4.6 23.7zm-4.2-87.2c-2.5-6.1-8.8-16 4.2-16.7 6.6-2.4 10.7 14 10.7 14s-12.8 9.2-14.9 2.7zm-14.6-12c-1.5 2.5-3.9 7.2-4.2 7.1-9-3.8-15.4-9.8-14.8-20.6l23.6-.4z"/><path fill="#545454" fill-rule="evenodd" d="M77.1 209.9l-4.5-1.4c-18.7-4.9-24.4-22.4-27.2-36.6s-.6-30.1.2-45.3c3.1-9.7 10.1-14.2 20-14.9 2.3-1 4.6-1.2 6.7.4 4.3 1.3 8.2-1.3 12.4-1.1 6.5 1.9 12.1 7.6 11.8 12.6-.8 13.9 6.8 13.9 16.4 12.8 21.4 15.5 19 15.1 9.9 41-8.4 23.5-23.2 31.9-45.7 32.5z"/><path fill="#6b6b6b" fill-rule="evenodd" d="M57.8 198.9l-8.3-.8c.2-2.8.5-5.6.8-8.4 12.5-5.5 7.5-19.8 14-28.1 8.2-10.3 12.9-7 14 4.8 5.8 8.4 17.5 4.3 24 11.2l16.4 1.6c-1.7 22.9-22.4 25.5-37 34.6-12.5 2.3-19-5-23.9-14.9z"/><path fill="#fff" d="M140.7 181.9h-39.5a31.8 31.8 0 0 1-31.8-31.8v-34.9a31.8 31.8 0 0 1 31.8-31.8h39.5a31.9 31.9 0 0 1 31.8 31.8v34.9a31.9 31.9 0 0 1-31.8 31.8zm-39.5-91.4a24.8 24.8 0 0 0-24.8 24.7v34.9a24.8 24.8 0 0 0 24.8 24.7h39.5a24.8 24.8 0 0 0 24.7-24.7v-34.9a24.8 24.8 0 0 0-24.7-24.7z"/><path fill="#fff" d="M120.9 161a28.4 28.4 0 1 1 28.4-28.4 28.4 28.4 0 0 1-28.4 28.4zm0-49.6a21.3 21.3 0 1 0 21.3 21.2 21.2 21.2 0 0 0-21.3-21.2zm33.8-6.2a5.9 5.9 0 0 1-5.9 5.9 5.9 5.9 0 0 1 0-11.8 5.9 5.9 0 0 1 5.9 5.9z"/></symbol><symbol id="fullstar" viewBox="0 0 256 256"><path fill="#161616" fill-rule="evenodd" d="M173.9 81.4c18.6 29.1 16.5 39.2-14.6 71.7-9.9.7-18.8 10.7-29.7 3.3-2.9-16.6 9-27.4 18.3-42.1-22.4-4.9-44.8-7.3-59.6-25.5-8.6-6.9-13.5-14.2-8.4-26.2 3.9-9.2 5.4-19.4 7.4-29.4h-.1c14.1-12.6 28.7-15.5 44.4-2.7 4.4 3.5 9.7 4.9 15.4 5.7 28.4 3.9 32.2 9.4 26.4 38.4-.4 2.5-.7 4.6.5 6.8z"/><path fill="#333" fill-rule="evenodd" d="M87.3 33.2c.2 10.9 2.6 22.3-3.7 32.2-7.7 11.8 7.6 13.2 8.8 20.8 8.1 12.7 17.2 24.3 30.7 32.2 8.8 5.2 13.6 13.2 9.3 24.1-7.9 6.5-15.7 2.4-21.1-2.6-14.5-13.5-32.7-21.6-47.7-34.1-1.5-1.7-3-3.5-4.4-5.4 3.3-24.9 18-45 28.1-67.2z"/><path fill="#232323" fill-rule="evenodd" d="M173.9 81.4c-5.5-3.5-2.2-7.8-1.8-12.3 1.4-16 1.1-31-22.6-26.2-5.8 1.2-13.2 2.1-17.6-3.6-13.1-16.8-28.3-15.5-44.7-6 9.1-9.6 57.5-21.1 67.3-16 22.7 11.8 28.3 30.5 19.4 64.1z"/><path fill="#545454" fill-rule="evenodd" d="M59.2 100.4h4.5c2.7 4.9 7.4 8.6 9.1 14 6.2 19.1 19.6 28 39.3 28.7 6.3.3 12.7 1.3 17.3 6.7.4 1 .8 2.1 1.3 3.2 9.5 8.2 19.1-4 28.6 0-12.2 8.5-24.7 13.9-39.1 4.5-4.5-3-9.2-2.5-12 2.8-10.4 19.5-22.5 8.4-29.7-.7-13.3-16.8-27.8-34.6-19.3-59.2zm47.9 91.9c.4-4.8 2.4-8.1 7-7.6 6.7.8 8.9 6.3 8.5 11.8s-1.9 10.5-8 8.7-6.6-8-7.5-12.9z"/><path fill="#161616" fill-rule="evenodd" d="M187.6 141.5c5.5 1.2 8.1 4.7 8.1 9.8s-4 7.9-9.3 7.6-8.8-3.2-8-9 3.9-8.1 9.2-8.4z"/><path fill="#6b6b6b" fill-rule="evenodd" d="M62.3 169.8c-.6-3.8 1.5-4.9 3.8-4.3s4.2 1.9 4.7 3.5-1 4.5-3.7 3.9-3.5-2.2-4.8-3.1z"/><path fill="#232323" fill-rule="evenodd" d="M130.6 143.6c.9-9.8-2.4-18.9-11.4-21.6-18.5-5.5-22.3-20.6-26.8-35.8 14.2 12.3 29.8 20.7 49.4 19.3 6.4-.5 13.4.2 15.4 7.9s-4.6 9.4-9.3 12.1c-10.9 6.1-9.2 19.8-17.2 27.6h-.1c-2.6-3.2-3-6.4 0-9.5z"/><path fill="#444" fill-rule="evenodd" d="M130.6 143.6v9.6c-4.5-1.6-8.8-4-13.4-4.6-42.2-5.3-42.2-5.2-53.5-48.1z"/><path fill="#fff" stroke="#fff" stroke-linecap="round" stroke-miterlimit="10" stroke-width="4.27" d="M124.9 38l18.9 38.2 42.2 6.2-30.5 29.7 7.2 42.1-37.8-19.9-37.7 19.9 7.2-42.1-30.5-29.7 42.2-6.2L124.9 38z"/></symbol><symbol id="cart" viewBox="0 0 256 256"><path fill="#232323" fill-rule="evenodd" d="M108.3 197.2c-8.6-12.2-29.6-7.4-34.4-25-2-2.9-5.2-4.7-7.1-7.9-2.9-4.8-3.9-10.1 1.3-13.1 7.5-4.3 11.8-.6 13.2 7.1 1.7-7-1.1-13.6-3.2-20.4-6.8-21.7 7-52.9 27.9-62.8 1.8-.9 4.1 0 6.1 1 8.1 11-1.2 20.1-3.4 30s-8.3 22.5 6.6 29.3 31.8.7 38.5-13-1.9-22.7-11.9-30.3-22.1-6.4-29.7-16.1c2-13.3 11.7-12.3 21.1-10.9 29.2 4.4 50.6 33 47.9 63.7-1.8 20.9-30.2 39.7-61.3 40.1 8.8 6.4 16 13.1 10.6 24.7-7.1 3-13.7 9.1-22.2 3.6z"/><path fill="#333" fill-rule="evenodd" d="M129.9 192.6c-1.5-16.7-12.3-22.7-27.7-22.5.9-9.6 7.2-7.7 11.2-6.3 11 3.9 22.6 1.3 30.8-3.2 14.7-8 34.9-15 31.7-37.8-5.1-35.5-22.8-53.8-49.6-54.2-6.5-.1-10.8 2.7-13.5 8.4-25.1 12.9-35.9 37.8-27.2 62.7a18.5 18.5 0 0 1 1.2 6.2c.2 4.2.1 8.4.1 12.3-8 4.1-11-9.9-16.6-4.9-7 6.5 3.5 12.3 3.6 18.9-17.8-4.7-17.9-16.7-12.6-30.9 6.8-11.9 10.1-24.7 8.7-38.6 1.1-1.5 2.2-3 3.2-4.6 10.4-8.1 10.7-22.3 19-31.7 15.1-9 32.7-10.5 49-10.9 18-.4 29.4 14.8 39.7 28.6 9.4 22.2 16.8 44.6 5.1 68.4-15.3 13.8-32.2 25.6-48.2 38.6-2.4 1.8-4.8 3.5-7.9 1.5z"/><path fill="#545454" fill-rule="evenodd" d="M181.4 150c13.9-9.7 4.4-22.9 4.2-34.1s-5.5-20.2-8.6-30.3-8.9-18.9-4.2-29.6l8.6-.4c10.1 14.1 5.4 32.3 12.9 47.1 8.2 21.4-3.1 42.4-1.4 63.7.4 5.2-7.5 5.5-11.9 7.2-8.5 3.2-16.5 5.2-20.1 16.1-2.7 8.4-42.1 12.7-52.6 7.5l21.6-4.6 4.4-4c18.3-7.4 30.1-17.1 47.1-38.6z"/><path fill="#444" fill-rule="evenodd" d="M172.8 56c6.1 9.1 3.9 19.6 4.2 29.6-18.1-20.7-37.2-37-66.9-19.7-5 2.9-12.4 1.8-18.7 2.6l-1.8-1.8c-.9-2.7-.6-5 1.8-6.7 8-8.6 16.7-14.3 28.7-7.1 6.4 3.8 12.1-.1 18.3-1.4 11.6-2.3 24.4-8.3 34.4 4.5z"/><path fill="#6b6b6b" fill-rule="evenodd" d="M194.3 102.7c-12.6-13.4-11.7-30.5-12.9-47.1 13.2-.6 16.5 6.1 14.6 18.3-1.5 9.5-1.2 19.2-1.7 28.8z"/><path fill="#444" fill-rule="evenodd" d="M70 102.7c7 19.7 3.6 34.7-8.7 38.6-6.8-15 7.1-25.4 8.7-38.6zm21.4-34.2c-1.5 12.7-3.8 24.8-18.1 29.6.2-9.5 5.5-17.2 9.4-25.4 2.4-2.3 3.6-6.8 8.4-4.4z"/><path fill="#545454" fill-rule="evenodd" d="M91.1 68.3l-8.4 4.4c0-6.2-.3-12.7 8.7-12.7z"/><path fill="#161616" fill-rule="evenodd" d="M112.8 77c10.2-.1 19.5 3.7 28.3 8 19.2 9.5 26.5 26.8 17.9 40.9-11.4 18.7-37.7 25.8-53.4 12.8-10.3-8.4-6.4-20.8-3.3-31.7s6.9-20 10.5-30z"/><path fill="#444" fill-rule="evenodd" d="M181.4 150c-10.5 19.1-21.8 37.4-47.1 38.6z"/><path fill="none" stroke="#fff" stroke-linecap="round" stroke-miterlimit="10" stroke-width="7" d="M102.2 95.7V80c0-7.1 7.8-13 17.4-13h15.6c9.6 0 17.4 5.9 17.4 13v15.7M173 163H83l16.8-67.3h56.4L173 163z"/></symbol><symbol id="halfstar" viewBox="0 0 256 256"><path fill="#232323" fill-rule="evenodd" d="M96.3 169.2c-8.6-12.2-29.6-7.4-34.4-25-2-2.9-5.2-4.7-7.1-7.9-2.9-4.8-3.9-10.1 1.3-13.1 7.5-4.3 11.8-.6 13.2 7.1 1.7-7-1.1-13.6-3.2-20.4-6.8-21.7 7-52.9 27.9-62.8 1.8-.9 4.1 0 6.1 1 8.1 11-1.2 20.1-3.4 30s-8.3 22.5 6.6 29.3 31.8.7 38.5-13-1.9-22.7-11.9-30.3-22.1-6.4-29.7-16.1c2-13.3 11.7-12.3 21.1-10.9 29.2 4.4 50.6 33 47.9 63.7-1.8 20.9-30.2 39.7-61.3 40.1 8.8 6.4 16 13.1 10.6 24.7-7.1 3-13.7 9.1-22.2 3.6z"/><path fill="#333" fill-rule="evenodd" d="M117.9 164.6c-1.5-16.7-12.3-22.7-27.7-22.5.9-9.6 7.2-7.7 11.2-6.3 11 3.9 22.6 1.3 30.8-3.2 14.7-8 34.9-15 31.7-37.8-5.1-35.5-22.8-53.8-49.6-54.2-6.5-.1-10.8 2.7-13.5 8.4-25.1 12.9-35.9 37.8-27.2 62.7a18.5 18.5 0 0 1 1.2 6.2c.2 4.2.1 8.4.1 12.3-8 4.1-11-9.9-16.6-4.9-7 6.5 3.5 12.3 3.6 18.9-17.8-4.7-17.9-16.7-12.6-30.9 6.8-11.9 10.1-24.7 8.7-38.6 1.1-1.5 2.2-3 3.2-4.6 10.4-8.1 10.7-22.3 19-31.7 15.1-9 32.7-10.5 49-10.9 18-.4 29.4 14.8 39.7 28.6 9.4 22.2 16.8 44.6 5.1 68.4-15.3 13.8-32.2 25.6-48.2 38.6-2.4 1.8-4.8 3.5-7.9 1.5z"/><path fill="#545454" fill-rule="evenodd" d="M169.4 122c13.9-9.7 4.4-22.9 4.2-34.1s-5.5-20.2-8.6-30.3-8.9-18.9-4.2-29.6l8.6-.4c10.1 14.1 5.4 32.3 12.9 47.1 8.2 21.4-3.1 42.4-1.4 63.7.4 5.2-7.5 5.5-11.9 7.2-8.5 3.2-16.5 5.2-20.1 16.1-2.7 8.4-42.1 12.7-52.6 7.5l21.6-4.6 4.4-4c18.3-7.4 30.1-17.1 47.1-38.6z"/><path fill="#444" fill-rule="evenodd" d="M160.8 28c6.1 9.1 3.9 19.6 4.2 29.6-18.1-20.7-37.2-37-66.9-19.7-5 2.9-12.4 1.8-18.7 2.6l-1.8-1.8c-.9-2.7-.6-5 1.8-6.7 8-8.6 16.7-14.3 28.7-7.1 6.4 3.8 12.1-.1 18.3-1.4 11.6-2.3 24.4-8.3 34.4 4.5z"/><path fill="#6b6b6b" fill-rule="evenodd" d="M182.3 74.7c-12.6-13.4-11.7-30.5-12.9-47.1 13.2-.6 16.5 6.1 14.6 18.3-1.5 9.5-1.2 19.2-1.7 28.8z"/><path fill="#444" fill-rule="evenodd" d="M58 74.7c7 19.7 3.6 34.7-8.7 38.6-6.8-15 7.1-25.4 8.7-38.6zm21.4-34.2c-1.5 12.7-3.8 24.8-18.1 29.6.2-9.5 5.5-17.2 9.4-25.4 2.4-2.3 3.6-6.8 8.4-4.4z"/><path fill="#545454" fill-rule="evenodd" d="M79.1 40.3l-8.4 4.4c0-6.2-.3-12.7 8.7-12.7z"/><path fill="#161616" fill-rule="evenodd" d="M100.8 49c10.2-.1 19.5 3.7 28.3 8 19.2 9.5 26.5 26.8 17.9 40.9-11.4 18.7-37.7 25.8-53.4 12.8-10.3-8.4-6.4-20.8-3.3-31.7s6.9-20 10.5-30z"/><path fill="#444" fill-rule="evenodd" d="M169.4 122c-10.5 19.1-21.8 37.4-47.1 38.6z"/><path fill="none" stroke="#fff" stroke-linecap="round" stroke-miterlimit="10" stroke-width="4.27" d="M118.9 42l18.9 38.2 42.2 6.2-30.5 29.7 7.2 42.1-37.8-19.9-37.7 19.9 7.2-42.1-30.5-29.7 42.2-6.2L118.9 42z"/><path fill="#fff" stroke="#fff" stroke-linecap="round" stroke-miterlimit="10" stroke-width="4.27" d="M119 42l-.1 96.3-37.7 19.9 7.2-42.1-30.5-29.7 42.2-6.2L118.9 42h.1z"/></symbol><symbol id="mobmenu" viewBox="0 0 256 256"><path fill="#232323" fill-rule="evenodd" d="M56.1 83.2C47.2 66.5 49.6 58 70 49.9s110.3-6.9 103.7 0 1.4 4.8-1 6.7c-6.9 4.5-14.8 4.2-22.6 4.4-17.9.2-35.9-.1-53.9.1-13.6.1-24.4 4.6-30.6 17.4-2.4 3-5.2 5.4-9.5 4.7z"/><path fill="#161616" fill-rule="evenodd" d="M169.4 55.7V51h4.8c3.7 6.7 11.4 3.2 16.4 6.3s4.6 6.8-1.9 8.1c-4.4 3.7-1.5 10-5 14v9.2c-12.9.3-15.4-11.1-21.3-18.8-1.9-6.8 1.8-10.9 7-14.1z"/><path fill="#444" fill-rule="evenodd" d="M56.1 83.2l5-5.1c19.5-22.1 47.3-17.9 68.5-11.9s41.4 20 61.5 31.5c11.1 10.9 12.4 23.5 6.5 37.3-.2 3.9-1.4 7.2-5.2 9-4.6 4.9-3.7 12-6.8 17.6-7.1 7.5-18.8 11.3-25.4 7.4-18.3-10.6-23.6-.2-28.7 13.5C95.7 200.9 97.9 198 69 167.8c-26.3-27.6-27.5-53.5-12.9-84.6z"/><path fill="#333" fill-rule="evenodd" d="M187.9 101.7c-5.8 1.1-5.3-21.9-16.9-3.6-4.5 7-9.2-4-13.3-7.8-25.5-23.6-68.8-29.1-96.6-12.2C64.4 60.9 75.3 54 92.3 54.5c19.3.5 38.5.4 57.8.5 6.2 4.7 9.5 13.4 19 13.5 9.4 3.3 11.4 13.8 18.8 19l5 4.5c2.8 5.6-1.7 7.3-5 9.7zm-56.4 80.8c6.9-12.8-9.4-7.6-11.9-15.9 16.1.1 29.2-6.2 38.7-17.9 8.5 7.8-1.1 11.4.4 17.7 9.2 1.4 17-2.8 24.4-8 8.8-.6 7.6 3.9 4.8 9.3z"/><path fill="#232323" fill-rule="evenodd" d="M187.9 101.7l5-9.7c12.8 13.1 27.1 26.1 4.7 43-3-11.1.6-24.2-9.7-33.3zm0 66c-.3-3.8-1-7.4-4.8-9.3 0-6.8 2.5-12 9.4-14.4-5.1 7.2 12.8 18.9-4.6 23.7zm-4.2-87.2c-2.5-6.1-8.8-16 4.2-16.7 6.6-2.4 10.7 13.9 10.7 13.9s-12.8 9.3-14.9 2.8zm-14.6-12c-1.5 2.5-3.9 7.2-4.2 7.1-9-3.8-15.4-9.8-14.8-20.6l23.6-.4z"/><path fill="#545454" fill-rule="evenodd" d="M75.1 192.8l-4.5-1.4c-18.7-4.9-24.4-22.4-27.2-36.6s-.6-30.1.2-45.3c3.1-9.7 10.1-14.2 20-14.9 2.3-1 4.6-1.3 6.7.4 4.3 1.3 8.2-1.3 12.4-1.2 6.5 2 12.1 7.7 11.8 12.7-.8 13.9 6.8 13.9 16.4 12.8 21.4 15.5 19 15.1 9.9 41-8.4 23.5-23.2 31.9-45.7 32.5z"/><path fill="#6b6b6b" fill-rule="evenodd" d="M55.8 181.8l-8.3-.8c.2-2.8.5-5.6.8-8.4 12.5-5.5 7.5-19.8 14-28.1 8.2-10.4 12.9-7 14 4.8 5.8 8.4 17.5 4.3 24 11.2l16.4 1.6c-1.7 22.9-22.4 25.5-37 34.6-12.5 2.3-19-5-23.9-14.9z"/><path fill="none" stroke="#fff" stroke-linecap="round" stroke-miterlimit="10" stroke-width="6" d="M71 85.7h103.3M71 119.3h103.3M72.7 152.8H176"/></symbol><symbol id="ig" viewBox="0 0 256 256"><path fill="#161616" fill-rule="evenodd" d="M175.9 115.4c18.6 29.1 16.5 39.2-14.6 71.7-9.9.7-18.8 10.7-29.7 3.3-2.9-16.6 9-27.4 18.3-42.1-22.4-4.9-44.8-7.3-59.6-25.5-8.6-6.9-13.5-14.2-8.4-26.2 3.9-9.2 5.4-19.4 7.4-29.4h-.1c14.1-12.6 28.7-15.5 44.4-2.7 4.4 3.5 9.7 4.9 15.4 5.7 28.4 3.9 32.2 9.4 26.4 38.4-.4 2.5-.7 4.6.5 6.8z"/><path fill="#333" fill-rule="evenodd" d="M89.3 67.2c.2 10.9 2.6 22.3-3.7 32.2-7.7 11.8 7.6 13.2 8.8 20.8 8.1 12.7 17.2 24.3 30.7 32.2 8.8 5.2 13.6 13.2 9.3 24.1-7.9 6.5-15.7 2.4-21.1-2.6-14.5-13.5-32.7-21.6-47.7-34.1-1.5-1.7-3-3.5-4.4-5.4 3.3-24.9 18-45 28.1-67.2z"/><path fill="#232323" fill-rule="evenodd" d="M175.9 115.4c-5.5-3.5-2.2-7.8-1.8-12.3 1.4-16 1.1-31-22.6-26.2-5.8 1.2-13.2 2.1-17.6-3.6-13.1-16.8-28.3-15.5-44.7-6 9.1-9.6 57.5-21.1 67.3-16 22.7 11.8 28.3 30.5 19.4 64.1z"/><path fill="#545454" fill-rule="evenodd" d="M61.2 134.4h4.5c2.7 4.9 7.4 8.6 9.1 14 6.2 19.1 19.6 28 39.3 28.7 6.3.3 12.7 1.3 17.3 6.7.4 1 .8 2.1 1.3 3.2 9.5 8.2 19.1-4 28.6 0-12.2 8.5-24.7 13.9-39.1 4.5-4.5-3-9.2-2.5-12 2.8-10.4 19.5-22.5 8.4-29.7-.7-13.3-16.8-27.8-34.6-19.3-59.2zm47.9 91.9c.4-4.8 2.4-8.1 7-7.6 6.7.8 8.9 6.3 8.5 11.8s-1.9 10.5-8 8.7-6.6-8-7.5-12.9z"/><path fill="#161616" fill-rule="evenodd" d="M189.6 175.5c5.5 1.2 8.1 4.7 8.1 9.8s-4 7.9-9.3 7.6-8.8-3.2-8-9 3.9-8.1 9.2-8.4z"/><path fill="#6b6b6b" fill-rule="evenodd" d="M64.3 203.8c-.6-3.8 1.5-4.9 3.8-4.3s4.2 1.9 4.7 3.5-1 4.5-3.7 3.9-3.5-2.2-4.8-3.1z"/><path fill="#232323" fill-rule="evenodd" d="M132.6 177.6c.9-9.8-2.4-18.9-11.4-21.6-18.5-5.5-22.3-20.6-26.8-35.8 14.2 12.3 29.8 20.7 49.4 19.3 6.4-.5 13.4.2 15.4 7.9s-4.6 9.4-9.3 12.1c-10.9 6.1-9.2 19.8-17.2 27.6h-.1c-2.6-3.2-3-6.4 0-9.5z"/><path fill="#444" fill-rule="evenodd" d="M132.6 177.6v9.6c-4.5-1.6-8.8-4-13.4-4.6-42.2-5.3-42.2-5.2-53.5-48.1z"/><path fill="#fff" d="M144.1 197.4v-47.6h16l2.4-18.6h-18.4v-11.8c0-5.4 1.5-9.1 9.2-9.1h9.8V93.7a141.4 141.4 0 0 0-14.3-.7c-14.2 0-23.9 8.6-23.9 24.5v13.7h-16v18.6h16v47.6z"/></symbol><symbol id="nostar" viewBox="0 0 256 256"><path fill="#161616" fill-rule="evenodd" d="M162.9 86.4c18.6 29.1 16.5 39.2-14.6 71.7-9.9.7-18.8 10.7-29.7 3.3-2.9-16.6 9-27.4 18.3-42.1-22.4-4.9-44.8-7.3-59.6-25.5-8.6-6.9-13.5-14.2-8.4-26.2 3.9-9.2 5.4-19.4 7.4-29.4h-.1c14.1-12.6 28.7-15.5 44.4-2.7 4.4 3.5 9.7 4.9 15.4 5.7 28.4 3.9 32.2 9.4 26.4 38.4-.4 2.5-.7 4.6.5 6.8z"/><path fill="#333" fill-rule="evenodd" d="M76.3 38.2c.2 10.9 2.6 22.3-3.7 32.2-7.7 11.8 7.6 13.2 8.8 20.8 8.1 12.7 17.2 24.3 30.7 32.2 8.8 5.2 13.6 13.2 9.3 24.1-7.9 6.5-15.7 2.4-21.1-2.6-14.5-13.5-32.7-21.6-47.7-34.1-1.5-1.7-3-3.5-4.4-5.4 3.3-24.9 18-45 28.1-67.2z"/><path fill="#232323" fill-rule="evenodd" d="M162.9 86.4c-5.5-3.5-2.2-7.8-1.8-12.3 1.4-16 1.1-31-22.6-26.2-5.8 1.2-13.2 2.1-17.6-3.6-13.1-16.8-28.3-15.5-44.7-6 9.1-9.6 57.5-21.1 67.3-16 22.7 11.8 28.3 30.5 19.4 64.1z"/><path fill="#545454" fill-rule="evenodd" d="M48.2 105.4h4.5c2.7 4.9 7.4 8.6 9.1 14 6.2 19.1 19.6 28 39.3 28.7 6.3.3 12.7 1.3 17.3 6.7.4 1 .8 2.1 1.3 3.2 9.5 8.2 19.1-4 28.6 0-12.2 8.5-24.7 13.9-39.1 4.5-4.5-3-9.2-2.5-12 2.8-10.4 19.5-22.5 8.4-29.7-.7-13.3-16.8-27.8-34.6-19.3-59.2zm47.9 91.9c.4-4.8 2.4-8.1 7-7.6 6.7.8 8.9 6.3 8.5 11.8s-1.9 10.5-8 8.7-6.6-8-7.5-12.9z"/><path fill="#161616" fill-rule="evenodd" d="M176.6 146.5c5.5 1.2 8.1 4.7 8.1 9.8s-4 7.9-9.3 7.6-8.8-3.2-8-9 3.9-8.1 9.2-8.4z"/><path fill="#6b6b6b" fill-rule="evenodd" d="M51.3 174.8c-.6-3.8 1.5-4.9 3.8-4.3s4.2 1.9 4.7 3.5-1 4.5-3.7 3.9-3.5-2.2-4.8-3.1z"/><path fill="#232323" fill-rule="evenodd" d="M119.6 148.6c.9-9.8-2.4-18.9-11.4-21.6-18.5-5.5-22.3-20.6-26.8-35.8 14.2 12.3 29.8 20.7 49.4 19.3 6.4-.5 13.4.2 15.4 7.9s-4.6 9.4-9.3 12.1c-10.9 6.1-9.2 19.8-17.2 27.6h-.1c-2.6-3.2-3-6.4 0-9.5z"/><path fill="#444" fill-rule="evenodd" d="M119.6 148.6v9.6c-4.5-1.6-8.8-4-13.4-4.6-42.2-5.3-42.2-5.2-53.5-48.1z"/><path fill="none" stroke="#fff" stroke-linecap="round" stroke-miterlimit="10" stroke-width="4.27" d="M111.9 41l18.9 38.2 42.2 6.2-30.5 29.7 7.2 42.1-37.8-19.9-37.7 19.9 7.2-42.1-30.5-29.7 42.2-6.2L111.9 41z"/></symbol><symbol id="tw" viewBox="0 0 256 256"><path fill="#232323" fill-rule="evenodd" d="M91.3 201.2c-8.6-12.2-29.6-7.4-34.4-25-2-2.9-5.2-4.7-7.1-7.9-2.9-4.8-3.9-10.1 1.3-13.1 7.5-4.3 11.8-.6 13.2 7.1 1.7-7-1.1-13.6-3.2-20.4-6.8-21.7 7-52.9 27.9-62.8 1.8-.9 4.1 0 6.1 1 8.1 11-1.2 20.1-3.4 30s-8.3 22.5 6.6 29.3 31.8.7 38.5-13-1.9-22.7-11.9-30.3-22.1-6.4-29.7-16.1c2-13.3 11.7-12.3 21.1-10.9 29.2 4.4 50.6 33 47.9 63.7-1.8 20.9-30.2 39.7-61.3 40.1 8.8 6.4 16 13.1 10.6 24.7-7.1 3-13.7 9.1-22.2 3.6z"/><path fill="#333" fill-rule="evenodd" d="M112.9 196.6c-1.5-16.7-12.3-22.7-27.7-22.5.9-9.6 7.2-7.7 11.2-6.3 11 3.9 22.6 1.3 30.8-3.2 14.7-8 34.9-15 31.7-37.8-5.1-35.5-22.8-53.8-49.6-54.2-6.5-.1-10.8 2.7-13.5 8.4-25.1 12.9-35.9 37.8-27.2 62.7a18.5 18.5 0 0 1 1.2 6.2c.2 4.2.1 8.4.1 12.3-8 4.1-11-9.9-16.6-4.9-7 6.5 3.5 12.3 3.6 18.9-17.8-4.7-17.9-16.7-12.6-30.9 6.8-11.9 10.1-24.7 8.7-38.6 1.1-1.5 2.2-3 3.2-4.6 10.4-8.1 10.7-22.3 19-31.7 15.1-9 32.7-10.5 49-10.9 18-.4 29.4 14.8 39.7 28.6 9.4 22.2 16.8 44.6 5.1 68.4-15.3 13.8-32.2 25.6-48.2 38.6-2.4 1.8-4.8 3.5-7.9 1.5z"/><path fill="#545454" fill-rule="evenodd" d="M164.4 154c13.9-9.7 4.4-22.9 4.2-34.1s-5.5-20.2-8.6-30.3-8.9-18.9-4.2-29.6l8.6-.4c10.1 14.1 5.4 32.3 12.9 47.1 8.2 21.4-3.1 42.4-1.4 63.7.4 5.2-7.5 5.5-11.9 7.2-8.5 3.2-16.5 5.2-20.1 16.1-2.7 8.4-42.1 12.7-52.6 7.5l21.6-4.6 4.4-4c18.3-7.4 30.1-17.1 47.1-38.6z"/><path fill="#444" fill-rule="evenodd" d="M155.8 60c6.1 9.1 3.9 19.6 4.2 29.6-18.1-20.7-37.2-37-66.9-19.7-5 2.9-12.4 1.8-18.7 2.6l-1.8-1.8c-.9-2.7-.6-5 1.8-6.7 8-8.6 16.7-14.3 28.7-7.1 6.4 3.8 12.1-.1 18.3-1.4 11.6-2.3 24.4-8.3 34.4 4.5z"/><path fill="#6b6b6b" fill-rule="evenodd" d="M177.3 106.7c-12.6-13.4-11.7-30.5-12.9-47.1 13.2-.6 16.5 6.1 14.6 18.3-1.5 9.5-1.2 19.2-1.7 28.8z"/><path fill="#444" fill-rule="evenodd" d="M53 106.7c7 19.7 3.6 34.7-8.7 38.6-6.8-15 7.1-25.4 8.7-38.6zm21.4-34.2c-1.5 12.7-3.8 24.8-18.1 29.6.2-9.5 5.5-17.2 9.4-25.4 2.4-2.3 3.6-6.8 8.4-4.4z"/><path fill="#545454" fill-rule="evenodd" d="M74.1 72.3l-8.4 4.4c0-6.2-.3-12.7 8.7-12.7z"/><path fill="#161616" fill-rule="evenodd" d="M95.8 81c10.2-.1 19.5 3.7 28.3 8 19.2 9.5 26.5 26.8 17.9 40.9-11.4 18.7-37.7 25.8-53.4 12.8-10.3-8.4-6.4-20.8-3.3-31.7s6.9-20 10.5-30z"/><path fill="#444" fill-rule="evenodd" d="M164.4 154c-10.5 19.1-21.8 37.4-47.1 38.6z"/><path fill="#fff" d="M150.6 106.1a11.7 11.7 0 0 1-3.4.4v-.3c1.7-1.4 6.2-5.7 6.7-7.7s0-1.2 0-1.2l-5.7 2.4-4.7 2.1a18.6 18.6 0 0 0-13.7-5.7c-9.8 0-17.8 7-17.8 15.6a22 22 0 0 0 .7 5.8c-6.3-.1-14.4-2.7-21.6-6.4C76.9 103.9 76 98.9 76 98.9c-2.2 2.4-3.4 10.2-1.1 16.4 1.5 4 6.5 7.5 6.5 7.5a17.9 17.9 0 0 1-4.6-.7 8.8 8.8 0 0 1-3.2-1.6c-1.4 3.4 1.4 9.4 6.2 13.8 2.8 2.5 7.9 4.1 7.9 4.1l-8 .2C79.3 146.4 96 151 96 151a27.2 27.2 0 0 1-16.7 6.1 31.5 31.5 0 0 1-9.2-1.3c8.1 6.7 18.5 11.3 29.8 10.7 30-1.6 46.9-27.4 47.7-52.7h.1a21.1 21.1 0 0 0 4.4-3.7 32 32 0 0 0 4.9-6.5 66.6 66.6 0 0 1-6.4 2.5z"/></symbol></svg>