<svg xmlns="http://www.w3.org/2000/svg"><symbol id="phone" viewBox="0 0 256 256"><path fill="#fafafa" d="M118 115s-21 8-12 33 23 38 54 53c26 5 29-15 29-15l-15-15s-15.5 17.5-27.5 5.5-18-14-18-18-8-7 0-14l8-7z"/></symbol><symbol id="search" viewBox="0 0 256 256"><circle cx="135" cy="151" r="27" fill="none" stroke="#fafafa" stroke-miterlimit="10" stroke-width="10"/><rect width="42.9" height="16.26" x="143.6" y="174.4" fill="#fafafa" rx="7.8" ry="7.8" transform="rotate(45 164.99 182.54)"/></symbol><symbol id="twitter" viewBox="0 0 256 256"><path fill="#fafafa" d="M36 191s40-2.1 52.6-12.6c-27.4-10.5-35.8-29.5-35.8-29.5s14.8 4.2 19 0c-10.6-8.4-31.6-31.5-31.6-39.9 10.5 4.2 14.7 0 14.7 0s-12.6-27.4-8.4-48.4c10.5 4.2 25.3 42.1 82.1 35.7 2.1-39.9 27.3-63.1 67.3-39.9 44.1-14.7 27.3-4.2 27.3-4.2L212.7 69h18.9l-18.9 18.9S202.2 262.5 36 191z"/></symbol><symbol id="cart" viewBox="0 0 256 256"><path fill="#fafafa" d="M236.5 151l-98.4 8.2L125 98.5h111.5V151zM102 87h31.2v11.48H102z"/><path fill="#fafafa" d="M138.1 151h9.8v18.05h-9.8z"/><path fill="#fafafa" d="M133.2 167.4h93.5v9.84h-93.5z"/><circle cx="143" cy="183.8" r="8.2" fill="#fafafa"/><circle cx="215.2" cy="183.8" r="8.2" fill="#fafafa"/></symbol><symbol id="email" viewBox="0 0 256 256"><path fill="#fafafa" d="M183.9 126.5a11.6 11.6 0 0 1 11.6 11.6v43.8a11.6 11.6 0 0 1-11.6 11.6h-81.8a11.6 11.6 0 0 1-11.6-11.6v-43.8a11.6 11.6 0 0 1 11.6-11.6h81.8m0-8.5h-81.8A20.1 20.1 0 0 0 82 138.1v43.8a20.1 20.1 0 0 0 20.1 20.1h81.8a20.1 20.1 0 0 0 20.1-20.1v-43.8a20.1 20.1 0 0 0-20.1-20.1z"/><path fill="none" stroke="#fafafa" stroke-linejoin="bevel" stroke-width="9" d="M145 187.5l50-61H95l50 61z"/></symbol><symbol id="fav" viewBox="0 0 256 256"><path fill="#fafafa" d="M151.9 125.6s27.8-29 48.3 0-48.3 78.4-48.3 78.4z"/><path fill="#fafafa" d="M151.9 125.6s-27.7-29-48.2 0 48.2 78.4 48.2 78.4z"/></symbol><symbol id="facebook" viewBox="0 0 256 256"><path fill="#fafafa" d="M105.4 189h27.2v-65.8h22.9V98.9h-22.9V80.3s-4.3-11.4 7.2-11.4h18.5V46h-27.1s-25.8-2.8-25.8 27.2v22.9H84v24.3h20z"/></symbol><symbol id="insta" viewBox="0 0 256 256"><path fill="#fafafa" d="M166.7 79.6A15.4 15.4 0 0 1 182.1 95v70a15.4 15.4 0 0 1-15.4 15.4H94A15.4 15.4 0 0 1 78.6 165V95A15.4 15.4 0 0 1 94 79.6h72.7m0-13.6H94a29.2 29.2 0 0 0-29 29v70a29.2 29.2 0 0 0 29 29h72.7a29.1 29.1 0 0 0 29-29V95a29.1 29.1 0 0 0-29-29z"/><path fill="#fafafa" d="M130.4 105.5a24.5 24.5 0 1 1-24.5 24.5 24.5 24.5 0 0 1 24.5-24.5m0-13.6a38.1 38.1 0 1 0 38.1 38.1 38.2 38.2 0 0 0-38.1-38.1z"/><path fill="#fafafa" d="M154.9 116.4h34v-10.9h-38.1V79.6H77.3v36.8h24.5s31.3-40.9 53.1 0z"/></symbol></svg>