<svg xmlns="http://www.w3.org/2000/svg" width="256" height="256" viewBox="0 0 256 256"><path d="M77.8 146.4a32.2 32.2 0 0 0 4 7.2 48 48 0 0 0 8.3 8.7 59.8 59.8 0 0 0 10.9 6.8 86 86 0 0 0 19.4 6.7c2 .5-2.8-.3-9.7-2.7a82.1 82.1 0 0 1-10.8-4.4 97.8 97.8 0 0 0 13.7 6.3c2.8.7 5.7 1.4 8.6 1.9s6.4 1.1 9.6 1.4h4.9l4.8-.6a77.5 77.5 0 0 0 18.6-5.4 69.6 69.6 0 0 0 8.7-4.6l1.2-.7 1.2-.8 2.1-1.5 3.5-2.6a75.6 75.6 0 0 1-11.9 8.1 48.5 48.5 0 0 1-6.5 3.1l-3.3 1.3-3.5 1.1c-2.2.8-4.6 1.2-6.9 1.8l-1.8.4-1.8.2-3.5.5-1.9.2h-1.8l-3.6-.3c-2.4-.2-4.7-.5-7.1-.9l1.5.3 7.5.9 1.9.2h2l3.8-.4 1.8-.3a5.8 5.8 0 0 0 1.9-.3l3.7-.7 1.9-.4 1.8-.6 3.6-1.1a41.4 41.4 0 0 0 4.9-1.9 41.4 41.4 0 0 1-4.9 1.9l-3.2 1.1a29.9 29.9 0 0 1-3.2.9l-3.4.8-1.7.4-1.8.3-4.7.5H134l-2.3-.2a51.2 51.2 0 0 1-7-1.1l-4.4-.8-1.4-.3h.1a55 55 0 0 0 8 1.9 60 60 0 0 0 6.9 1h2.2l2-.2 4-.4h1l1-.2 2.1-.4 3.9-.8 3.7-1.1 1.8-.5 1.7-.6a90.8 90.8 0 0 0 9-4.1c4.4-2.7 7.9-5.9 12.1-9.7a40.4 40.4 0 0 0 3.6-3.4 3.3 3.3 0 0 1 .9-1.3l1.9-2.1c.6-.7 1.3-1.3 1.8-2a14.6 14.6 0 0 0 1.6-2.1l.7-.9.2-.3.2-.3.3-.6a33.2 33.2 0 0 1 2-2.8 24.2 24.2 0 0 1-1.2-2.3l-.7-1.2-.2-.4-.2-.4a8.4 8.4 0 0 0-1.2-1.8c-1.9-.5-.4-.2-3.7-3.8-.4-.4-2-1.4-2.8-2.2a28.1 28.1 0 0 0-3.4-3.1l-4.1-2.9-6.1-4.1a31.4 31.4 0 0 0-6.1-3l-5-1.8-3.1-.9-1.4-.4a65.9 65.9 0 0 0-9.1-1.8l-4-.4-4-.4c-3.3.4-7.1.7-10.9 1.3a45 45 0 0 0-10.8 2.7l-7.8 2.9c-2.2.9-4.3 1.7-7 3a38.1 38.1 0 0 1-3.6 2c-.9.5-2.7 2.2-4.2 3.2l.2-.5-1.9 1.4c-.5.3-.5.1-.4 0s.2-.7-.7-.2-4.1 2.9-6.1 4.5-3.4 3.7-5 5.6a1.5 1.5 0 0 1-.2.8l-1.3 1.8c0 .5.3.6.3 1s-.7 3.4.4 3.3 3.1-3.1 4.7-4.1-.1.7-.2 1.2c1.7-1.7 2-1.5 1.5-.6l.8-.8v.7c4.5-3.9 10-7.5 14.5-11l3.6-2.9a18.7 18.7 0 0 1 2.5-1.2c.7-.7.4-1 .6-1.4 1.9-.9 5-2.2 7.6-3.2s4.7-1.8 4.3-2.3c3.3-1 3.8-1.7 7.3-2.5a55.1 55.1 0 0 1 7.8-1.3 64.6 64.6 0 0 1 8.8-.1 49.6 49.6 0 0 1 9.4 1.4l3.3.9a63.3 63.3 0 0 1 20.2 11 80.6 80.6 0 0 1 8 7.4c1.3 1.3 2.5 2.6 3.7 4s1.1 1.4 1.7 2l.8 1.2a30.2 30.2 0 0 1-1.8 2.7c-.4.7-1 1.3-1.4 1.9l-1.5 1.9q-3.2 3.6-6.9 7.2a64.6 64.6 0 0 1-31.1 15.8l-2.1.5-2.2.3-4.2.5h-2l-2.2-.2-4.1-.4a102 102 0 0 1-15.6-3.5c-9.7-3.1-17.5-7.7-22.7-12.4a46.2 46.2 0 0 1-9.6-11.5c-.7-.8-1.3-1.7-2-2.6z" opacity=".8"/><path d="M158.9 146.8c.1-.6.2-1.4.3-2.3s-.1-2-.1-3.2a30.3 30.3 0 0 0-2-7.7 26 26 0 0 0-4.3-7.2 24.2 24.2 0 0 0-4.9-4.8 24.9 24.9 0 0 0-3.2-2.1l-2.5-1.2c-.7-.3-.2-.2.9.3l2.1 1.1 1.3.8 1.4 1.1a26.6 26.6 0 0 1 5.4 5.3 26.9 26.9 0 0 0-6.8-7.3l-2.6-1.4-1.4-.6-1.4-.4a24 24 0 0 0-13-.4 27.3 27.3 0 0 0-11.5 6.1l-2.2 2.1a36.7 36.7 0 0 0-2.3 2.9 9.1 9.1 0 0 1-1.1 1.6l-.9 1.6c-.6.9-.9 1.9-1.3 2.6a21.4 21.4 0 0 1 1-2.2l1.2-2.2 1.4-2c.4-.7 1-1.3 1.5-2a27.9 27.9 0 0 1 7.5-6.2 25.5 25.5 0 0 1 19.1-2.6l-1-.3a25.3 25.3 0 0 0-20 3.7c-1 .6-1.9 1.4-2.9 2.1a21.6 21.6 0 0 1 2.9-2.1 27.4 27.4 0 0 1 8.6-4.1l3.3-.5h3.3l2.4.3 2.4.6a24.6 24.6 0 0 1 2.9.9l.9.3-.6-.5-1.2-.5-1.5-.6-2-.5a23.2 23.2 0 0 0-10.5 0 27.5 27.5 0 0 0-10.1 4.5l-1.8 1.4-1.4 1.4a13.1 13.1 0 0 0-1.8 2c-2.2 2.9-3.3 6.1-4.7 9.7-.3 1.3-.9 2.3-1 3.3s0 .6 0 1.1-.3 1.3-.4 1.9-.3 1.3-.4 1.9a12.4 12.4 0 0 0-.1 3.3 12.4 12.4 0 0 1-.7 3.2 7.2 7.2 0 0 0-.3 2.5c.7.5.8.6.7.9v.9a6.9 6.9 0 0 0 .2 1.8 5.1 5.1 0 0 0 .4 1.1 3.8 3.8 0 0 1 .6 1.3c.2.7.3 1.2.5 1.7l.6 1.3a23.3 23.3 0 0 0 1.8 3c.3.5.5 1 .8 1.4l.8 1.1a18.8 18.8 0 0 0 1.2 1.8l1.3 1.6 2 1.7 1.1.7 1.9 1.4 2 1.1.9.4 1.5.9 1.5.6 1.5.5 1.3.4 1.4.3 1.3.3 1.4.4 1.4.3a74.1 74.1 0 0 0 7.4-.9 22.2 22.2 0 0 0 7.3-2.8l2.6-1.7 2.1-1.5a29.6 29.6 0 0 0 4.1-3.5 3.8 3.8 0 0 0 1-1.3l.8-.9c.6-.5 1-2.3 1.7-3.3v.4l.8-1.5c.2-.3.2-.2.3-.1s.2.6.6 0a13.4 13.4 0 0 0 1.2-2.4c.3-.9.7-1.7 1-2.6a25.1 25.1 0 0 1 .4-2.7v-2.7l-.3-.5c0-.6-.1-1.1-.1-1.6s-.7-.2-.9-.4-1.6-2.1-2.4-1.6a4.9 4.9 0 0 0-.4 1.6c-.1.4-.1.9-.2 1.3s-.3.8-.4 1.1-.4-.4-.7-.7c-.2 1.5-.5 1.5-.7.9a2.1 2.1 0 0 0-.1.6l-.4-.4a14.3 14.3 0 0 1-.9 2.7 21.8 21.8 0 0 1-1.1 2.7l-.6 1.3-.6 1.2c-.4.9-.9 1.6-1.2 2.5l-1.2 2.6-1.1 1.2c-.2.6.1.8.2 1.2l-1.9 1.5c-.8.5-1.5 1.2-2.2 1.6l-1.8 1.3c-.4.4-.6.7-.4.9l-1.2.7-.9.5a6.4 6.4 0 0 1-2.2 1.1 21.7 21.7 0 0 1-10.6.7h-.7l-.8-.2-1.5-.4-1.4-.5-1.4-.6-1.9-1.1a24.1 24.1 0 0 1-7.8-7.4 33.2 33.2 0 0 1-4.2-9.2 40.6 40.6 0 0 1-1.1-9.9 36.4 36.4 0 0 1 1.9-10.5 28.4 28.4 0 0 1 5.8-9.9 24.7 24.7 0 0 1 9.5-6.3 21.9 21.9 0 0 1 11-1 22.9 22.9 0 0 1 9.5 3.8 24.6 24.6 0 0 1 6.4 6.5 8.7 8.7 0 0 1 1.1 1.8l.6.9a2 2 0 0 0 .4.8c.3.6.5 1.2.8 1.7l.6 1.7a32.8 32.8 0 0 1 1.7 9.6z" opacity=".8"/><path d="M142.6 146.8a6.7 6.7 0 0 0 0-4.9 12.5 12.5 0 0 0-1.5-2.8 11.2 11.2 0 0 0-1.7-1.9 12.5 12.5 0 0 0-2.1-1.4c-.3-.2-.1-.1.3.1a7 7 0 0 1 1.8 1.3 10 10 0 0 1 1.9 2.1 11 11 0 0 0-2.1-3.4l-2.2-1a9.5 9.5 0 0 0-5.3-.3 12.4 12.4 0 0 0-4.7 2.4 9.2 9.2 0 0 0-1.9 2 14.6 14.6 0 0 0-1.5 2.4 12.2 12.2 0 0 1 5.3-6.1 10.9 10.9 0 0 1 7.9-.9l-.4-.2a10.4 10.4 0 0 0-8.4 1.3l-1.3.9 1.3-.9a13.5 13.5 0 0 1 3.6-1.8h2.8l1.1.2.9.4 1.2.4h.4a1.4 1.4 0 0 0-.7-.6l-.6-.3-.9-.3a8.5 8.5 0 0 0-4.6-.4 12.1 12.1 0 0 0-4.5 1.8 6.8 6.8 0 0 0-2.3 2.1c-1 1.3-1.1 2.9-1.6 4.5a3.9 3.9 0 0 0-.5 1.4c.1 0 .1.3.2.5s-.7 2.1-.4 3a5.9 5.9 0 0 1-.7 1.4c-.4.5-.6 1-.4 1.1s.6.1.6.3a1.7 1.7 0 0 0-.2 1.2 8.6 8.6 0 0 1 .7 1 2.2 2.2 0 0 0 .5 1.3l.9 1.3.7 1 .5.8.6.7 1 .6 1.3.7.9.4.4.2 1.3.6 1.2.3 1.1.3 1.2.5a14.4 14.4 0 0 1 3.1-.5 7.6 7.6 0 0 0 3.1-1.1l1.2-.7.9-.5a17.3 17.3 0 0 0 2.1-1.3l.9-.9c.3-.2.3-1.1.6-1.5l.2.2.4-.6h.3c.1.2.3.4.5.1a7.8 7.8 0 0 0 1.2-2.2 5.3 5.3 0 0 0 .1-1.3c0-.4-.1-.8-.1-1.2l-.4-.2a6.4 6.4 0 0 0-.2-.7l-.8-.3c-.9 0-1.7-.8-2.5-.6s-.4 1.1-.9 1.4-.4-.1-.6-.3-.5.5-.7.3v.2h-.4c-.6 1.2-1.7 2-1.9 3.1a3.8 3.8 0 0 1-.1 1l-.4.3c.1.3.4.5.5.8l-.7.4-.8.4c-.4.3-.7.6-.5 1.1l-.6.6a1 1 0 0 1-.7.5 6.9 6.9 0 0 1-3.6.4 7.3 7.3 0 0 1-2.1-.6l-.7-.4a9.2 9.2 0 0 1-4.1-6 16.9 16.9 0 0 1 .1-7.4 8.5 8.5 0 0 1 5.4-6.2 6.9 6.9 0 0 1 4-.3 7.5 7.5 0 0 1 3.4 1.5 9.3 9.3 0 0 1 3.2 5.1 15.3 15.3 0 0 1 .2 3.4z" opacity=".8"/><path fill="#231f20" d="M135.9 8c-10.8 17.5-42.7 79.2-57.1 105.8l-12.9 24c-2.7 4.9 3.4-6.6 12.9-24l14.8-28c-7.6 13.3-15 26.2-20.3 35.3L62.4 142l-44.6 85.6h10.3l26.5.2 26 .3H17.1l43.3-83.7-2 3.6-37.8 72c-1.5 2.8-2.9 5.7-4.5 8.6l4.5-8.6c2.9-5.6 5.7-11.1 8.5-16.8s5.5-10.8 8.5-16.6l11.7-22.2c3.1-5.8 6.1-11 9.1-16.4l5.6-10.7 1.6-3.3v.2c-2.1 3.1-10.4 17.8-20.1 35.7l-15.4 28.2-7.4 13.9-4.5 8.4c-1.8 3.6-3.6 7-5.3 10.2l21.7.2H44c13.4-.2 25.6-1.3 40.4-1.4 5 0 9.2.3 13 0a22.9 22.9 0 0 1 4.2-.4c9.9-.1 19.8.5 27.4 0 5.3-.2 20.2 2.5 21.4 2 4.1-1.8 1.1-.5 13.7-.3 1.5 0 6.5-.7 9.5-.6 10.3.4 13.3-.2 25.2-.4 8.7-.3 14.1-.2 19.2-.1h7.8l4.6-.2h2.5l3-.2 13.5-.3c-2-3.8-4.7-8.6-6.8-12.4l-2.8-5.1c-8.5-17-14.7-27.1-20.4-40.9-8.8-14.8-18.1-35.7-26.6-51.9s-11.3-23.4-17.9-38c-1.9-4.1-3.6-7.1-4.6-9.6s-4.6-7.9-6.5-12l.9.7c-.7-1.3-2-4.1-2.6-5.5s-.4-1.1 0-.8 1.2 1 .2-1.4c-2.6-5.8-5.4-11.7-8.3-17.7s-6.5-11.5-9.7-17A3.4 3.4 0 0 1 143 16l-3-5c-.9-.7-1.2-.2-1.9-.7s-6.1-5.8-6.4-3.5 5 10.7 6.7 15.4c.3 1.1-1.3-1-2.3-1.8 3 5.7 2.7 6.3 1.1 4.2l1.3 2.7-1.3-1c6.9 14.8 14.2 31.7 22.1 45.6 1.6 3 4.6 7.9 6.5 11.2a71 71 0 0 1 3.3 6.9c1.7 2.2 2 1.6 2.9 2.3 5 10.8 15.9 33.9 17.1 32.4 4.3 8.5 5.9 9.8 10.5 18.6l21.4 41c4.2 7.9 8.1 15.6 12.1 23.3l4.3 8.4 4.1 8-37.8-.2-39.6-.3c-26.2-.1-52.4-.1-82 .6l-31.2.5-28.7.3c2.7-5.2 5.3-10.5 8-15.6l9.1-17.9c6.1-11.7 12.1-23.3 18-34.5 11.7-22.5 22.9-43.7 33-62.5l41.9-78z" opacity=".8"/></svg>