<svg xmlns="http://www.w3.org/2000/svg" width="63.4" height="55" viewBox="0 0 63.4 55"><path fill="#fff" d="M31.7 5l27.4 47.4H4.3L31.7 5m0-5L0 54.9h63.4L31.7 0z"/><path fill="#fff" d="M49.2 8.6L31.7 38.9 14.2 8.6h35M52 7H11.4l20.3 35.1L52 7z"/><path fill="none" stroke="#fff" stroke-miterlimit="10" stroke-width="1.29" d="M35.7 47s10.1 12.9 21.2 0c-11.1-12.9-21.2 0-21.2 0zM6.6 47s10 12.9 21.1 0C16.6 34.1 6.6 47 6.6 47z"/><path fill="#fff" d="M55.7 9.1l-24 41.6-24-41.6h48M59.4 7H4l27.7 48L59.4 7z"/><path fill="#fff" d="M31.6 16.8a4.9 4.9 0 1 1-4.9 4.9 4.9 4.9 0 0 1 4.9-4.9m0-1a5.9 5.9 0 0 0 0 11.8 5.9 5.9 0 1 0 0-11.8z"/><circle cx="31.6" cy="21.7" r="2.8" fill="#f96552"/><path fill="none" stroke="#fff" stroke-miterlimit="10" stroke-width="1.29" d="M21 21.6s10.1 13 21.2 0c-11.1-12.8-21.2.1-21.2.1z"/><path fill="#fff" d="M17.1 42.1a4.9 4.9 0 1 1-4.9 4.9 4.9 4.9 0 0 1 4.9-4.9m0-1a5.9 5.9 0 0 0-5.9 5.9 6 6 0 1 0 11.9 0 5.9 5.9 0 0 0-6-5.9z"/><circle cx="17.1" cy="47" r="2.8" fill="#f96552"/><path fill="#fff" d="M46.3 42.1a4.9 4.9 0 1 1-4.9 4.9 4.9 4.9 0 0 1 4.9-4.9m0-1a5.9 5.9 0 0 0-5.9 5.9 6 6 0 1 0 11.9 0 5.9 5.9 0 0 0-6-5.9z"/><circle cx="46.3" cy="47" r="2.8" fill="#f96552"/></svg>