<svg xmlns="http://www.w3.org/2000/svg" width="245.4" height="213" viewBox="0 0 245.4 213"><path fill="#fff" d="M122.7 19.2l106.1 183.7H16.6L122.7 19.2m0-19.2L0 212.5h245.4L122.7 0z"/><path fill="#fff" d="M190.6 33.1l-67.9 117.6L54.8 33.1h135.8m10.6-6.1h-157l78.5 136 78.5-136z"/><path fill="none" stroke="#fff" stroke-miterlimit="10" stroke-width="5" d="M138.4 181.8s39 50 82 0v.2c-43-50-82 0-82 0zm-113 0s39 50 82 0v.2c-43-50-82 0-82 0z"/><path fill="#fff" d="M215.5 35.4l-92.8 160.8L29.8 35.4h185.7m14.6-8.4H15.3l107.4 186L230.1 27z"/><path fill="#fff" d="M122.4 65a19 19 0 1 1-19 19 19 19 0 0 1 19-19m0-4a23 23 0 1 0 23 23 23 23 0 0 0-23-23z"/><circle cx="122.4" cy="84" r="11" fill="#f96552"/><path fill="none" stroke="#fff" stroke-miterlimit="10" stroke-width="5" d="M81.4 83.8s39 50 82 0v.2c-43-50-82 0-82 0z"/><path fill="#fff" d="M66.4 163a19 19 0 1 1-19 19 19 19 0 0 1 19-19m0-4a23 23 0 1 0 23 23 23 23 0 0 0-23-23z"/><circle cx="66.4" cy="182" r="11" fill="#f96552"/><path fill="#fff" d="M179.4 163a19 19 0 1 1-19 19 19 19 0 0 1 19-19m0-4a23 23 0 1 0 23 23 23 23 0 0 0-23-23z"/><circle cx="179.4" cy="182" r="11" fill="#f96552"/></svg>