<svg id="Logo" xmlns="http://www.w3.org/2000/svg" width="63.4" height="55" viewBox="0 0 63.4 55"><title>Artboard 1</title><g id="Triangle"><path d="M31.7,5,59.1,52.4H4.3L31.7,5m0-5L0,54.9H63.4L31.7,0Z" fill="#fff"/></g><g id="Triangle-2" data-name="Triangle"><path d="M49.2,8.6,31.7,38.9,14.2,8.6h35M52,7H11.4L31.7,42.1,52,7Z" fill="#fff"/></g><path id="Eye" d="M35.7,47s10.1,12.9,21.2,0h0c-11.1-12.9-21.2,0-21.2,0Z" fill="none" stroke="#fff" stroke-miterlimit="10" stroke-width="1.29"/><path id="Eye-2" data-name="Eye" d="M6.6,47s10,12.9,21.1,0h0C16.6,34.1,6.6,47,6.6,47Z" fill="none" stroke="#fff" stroke-miterlimit="10" stroke-width="1.29"/><g id="Triangle-3" data-name="Triangle"><path d="M55.7,9.1l-24,41.6L7.7,9.1h48M59.4,7H4L31.7,55,59.4,7Z" fill="#fff"/></g><g id="Iris"><path d="M31.6,16.8a4.9,4.9,0,1,1-4.9,4.9,4.9,4.9,0,0,1,4.9-4.9m0-1a5.9,5.9,0,0,0,0,11.8,5.9,5.9,0,1,0,0-11.8Z" fill="#fff"/></g><g id="Pupil"><circle cx="31.6" cy="21.7" r="2.8" fill="#f96552"/></g><path id="Eye-3" data-name="Eye" d="M21,21.6s10.1,13,21.2,0h0C31.1,8.8,21,21.7,21,21.7Z" fill="none" stroke="#fff" stroke-miterlimit="10" stroke-width="1.29"/><g id="Iris-2" data-name="Iris"><path d="M17.1,42.1A4.9,4.9,0,1,1,12.2,47a4.9,4.9,0,0,1,4.9-4.9m0-1A5.9,5.9,0,0,0,11.2,47a6,6,0,1,0,11.9,0,5.9,5.9,0,0,0-6-5.9Z" fill="#fff"/></g><g id="Pupil-2" data-name="Pupil"><circle cx="17.1" cy="47" r="2.8" fill="#f96552"/></g><g id="Iris-3" data-name="Iris"><path d="M46.3,42.1A4.9,4.9,0,1,1,41.4,47a4.9,4.9,0,0,1,4.9-4.9m0-1A5.9,5.9,0,0,0,40.4,47a6,6,0,1,0,11.9,0,5.9,5.9,0,0,0-6-5.9Z" fill="#fff"/></g><g id="Pupil-3" data-name="Pupil"><circle cx="46.3" cy="47" r="2.8" fill="#f96552"/></g></svg>