<svg id="Logo" xmlns="http://www.w3.org/2000/svg" width="15.4" height="13.4" viewBox="0 0 15.4 13.4"><title>Artboard 1</title><g id="Triangle"><path d="M7.7,1.2l6.6,11.5H1L7.7,1.2M7.7,0,0,13.3H15.4L7.7,0Z" fill="#fff"/></g><g id="Triangle-2" data-name="Triangle"><path d="M11.9,2.1,7.7,9.4,3.4,2.1h8.5m.7-.4H2.8l4.9,8.5,4.9-8.5Z" fill="#fff"/></g><path id="Eye" d="M8.7,11.4a3.1,3.1,0,0,0,5.1,0h0a3.1,3.1,0,0,0-5.1,0Z" fill="none" stroke="#fff" stroke-miterlimit="10" stroke-width="0.31"/><path id="Eye-2" data-name="Eye" d="M1.6,11.4a3.1,3.1,0,0,0,5.1,0h0a3.1,3.1,0,0,0-5.1,0Z" fill="none" stroke="#fff" stroke-miterlimit="10" stroke-width="0.31"/><g id="Triangle-3" data-name="Triangle"><path d="M13.5,2.2,7.7,12.3,1.9,2.2H13.5m.9-.5H1L7.7,13.4,14.4,1.7Z" fill="#fff"/></g><g id="Iris"><path d="M7.7,4.1A1.2,1.2,0,0,1,8.9,5.3,1.3,1.3,0,0,1,7.7,6.5,1.2,1.2,0,0,1,6.5,5.3,1.2,1.2,0,0,1,7.7,4.1m0-.3A1.5,1.5,0,0,0,6.2,5.3,1.5,1.5,0,0,0,7.7,6.7,1.4,1.4,0,0,0,9.1,5.3,1.5,1.5,0,0,0,7.7,3.8Z" fill="#fff"/></g><g id="Pupil"><circle cx="7.7" cy="5.3" r="0.7" fill="#f96552"/></g><path id="Eye-3" data-name="Eye" d="M5.1,5.3a3.1,3.1,0,0,0,5.1,0h0a3.1,3.1,0,0,0-5.1,0Z" fill="none" stroke="#fff" stroke-miterlimit="10" stroke-width="0.31"/><g id="Iris-2" data-name="Iris"><path d="M4.2,10.2a1.3,1.3,0,0,1,1.2,1.2,1.2,1.2,0,0,1-1.2,1.2A1.2,1.2,0,0,1,3,11.4a1.2,1.2,0,0,1,1.2-1.2m0-.2a1.5,1.5,0,0,0-1.5,1.4,1.5,1.5,0,0,0,1.5,1.5,1.5,1.5,0,0,0,1.4-1.5A1.4,1.4,0,0,0,4.2,10Z" fill="#fff"/></g><g id="Pupil-2" data-name="Pupil"><circle cx="4.2" cy="11.4" r="0.7" fill="#f96552"/></g><g id="Iris-3" data-name="Iris"><path d="M11.2,10.2a1.2,1.2,0,0,1,1.2,1.2,1.2,1.2,0,0,1-1.2,1.2,1.1,1.1,0,0,1-1.1-1.2,1.2,1.2,0,0,1,1.1-1.2m0-.2a1.4,1.4,0,0,0-1.4,1.4,1.5,1.5,0,0,0,1.4,1.5,1.5,1.5,0,0,0,1.5-1.5A1.5,1.5,0,0,0,11.2,10Z" fill="#fff"/></g><g id="Pupil-3" data-name="Pupil"><circle cx="11.2" cy="11.4" r="0.7" fill="#f96552"/></g></svg>