<svg xmlns="http://www.w3.org/2000/svg" width="31.4" height="27.2" viewBox="0 0 31.4 27.2"><path fill="#fff" d="M15.7 2.5L29.3 26H2.1L15.7 2.5m0-2.5L0 27.2h31.4L15.7 0z"/><path fill="#fff" d="M24.4 4.2l-8.7 15.1L7 4.2h17.4m1.3-.7H5.6l10.1 17.3 10-17.3z"/><path fill="none" stroke="#fff" stroke-miterlimit="10" stroke-width=".64" d="M17.7 23.2s5 6.4 10.5 0c-5.5-6.4-10.5 0-10.5 0zm-14.5 0s5 6.4 10.5 0c-5.5-6.4-10.5 0-10.5 0z"/><path fill="#fff" d="M27.6 4.5L15.7 25.1 3.8 4.5h23.8m1.8-1H2l13.7 23.7L29.4 3.5z"/><path fill="#fff" d="M15.7 8.3a2.5 2.5 0 0 1 0 4.9 2.5 2.5 0 1 1 0-4.9m0-.5a3 3 0 1 0 2.9 2.9 2.9 2.9 0 0 0-2.9-2.9z"/><circle cx="15.7" cy="10.7" r="1.4" fill="#f96552"/><path fill="none" stroke="#fff" stroke-miterlimit="10" stroke-width=".64" d="M10.4 10.7s5 6.4 10.5 0c-5.5-6.4-10.5 0-10.5 0z"/><path fill="#fff" d="M8.5 20.8a2.5 2.5 0 0 1 0 4.9 2.4 2.4 0 0 1-2.4-2.4 2.4 2.4 0 0 1 2.4-2.5m0-.5a3.1 3.1 0 0 0-3 3 3 3 0 0 0 3 2.9 2.9 2.9 0 0 0 2.9-2.9 3 3 0 0 0-2.9-3z"/><circle cx="8.5" cy="23.3" r="1.4" fill="#f96552"/><path fill="#fff" d="M22.9 20.8a2.5 2.5 0 1 1 0 4.9 2.5 2.5 0 0 1 0-4.9m0-.5a3 3 0 0 0-2.9 3 3 3 0 0 0 5.9 0 3 3 0 0 0-3-3z"/><circle cx="22.9" cy="23.3" r="1.4" fill="#f96552"/></svg>