<svg xmlns="http://www.w3.org/2000/svg" width="64" height="64" viewBox="0 0 64 64"><path d="M18.9 37.2a4.1 4.1 0 0 0 .3.8 6.1 6.1 0 0 0 .7 1 4.8 4.8 0 0 0 .9 1.1 6.3 6.3 0 0 0 1.2 1.1 19.2 19.2 0 0 0 5.2 2.8l2.5.7-2.5-.7-2.7-1.1a26 26 0 0 0 3.5 1.6l2.2.5a13.5 13.5 0 0 0 4.9.2 19.5 19.5 0 0 0 4.7-1.4 11.7 11.7 0 0 0 2.3-1.1l2-1.5a18.3 18.3 0 0 1-6.4 3.5 15.3 15.3 0 0 1-3.6.7 12.1 12.1 0 0 1-1.9 0l-1.8-.3h.4l1.9.3h2a22.1 22.1 0 0 0 3.7-.8l1.3-.5-1.3.5a24.4 24.4 0 0 1-3.4.8l-1.2.2h-1.2a11.3 11.3 0 0 1-1.8-.3l-1.1-.3h-.3l2 .5 1.8.2h2.1a18.4 18.4 0 0 0 6.1-2 22.7 22.7 0 0 0 3.1-2.5 7.3 7.3 0 0 0 .9-.8l.3-.4a11.2 11.2 0 0 0 1.7-2.1 2.3 2.3 0 0 1 .5-.7l-.3-.6-.2-.3V36c-.2-.3-.3-.4-.3-.5s-.1 0-1-.9l-.7-.6a3.2 3.2 0 0 0-.9-.8l-1-.7a12.4 12.4 0 0 0-3.1-1.8l-1.4-.5-.8-.2h-.3l-1.3-.3-1.1-.2-2-.2a26.5 26.5 0 0 0-5.5 1l-3.8 1.5-.9.6a5.9 5.9 0 0 0-1.1.8V33l-.5.4c-.2.1-.1 0-.1 0s0-.2-.2-.1L20 34.4a8.6 8.6 0 0 0-1.3 1.4c0 .1 0 .1-.1.2l-.3.4c0 .2.1.2 0 .3s-.1.9.2.9a5.5 5.5 0 0 1 1.1-1.1c.1 0 0 .2 0 .3s.5-.4.4-.1l.2-.2c1.1-1 2.5-1.9 3.7-2.8l.9-.7.6-.3c.2-.2.1-.3.2-.4l1.9-.8c.7-.2 1.2-.5 1.1-.6l1.9-.6a14 14 0 0 1 4.2-.4l2.4.4.8.2a18.3 18.3 0 0 1 5.2 2.8 18 18 0 0 1 2 1.9l1 1 .4.5.2.3a9.1 9.1 0 0 1-1.2 1.7l-1.7 1.8a16.2 16.2 0 0 1-8 4.1l-2.1.3-2.2-.2a22.3 22.3 0 0 1-3.9-.9 15.7 15.7 0 0 1-5.8-3.1 12 12 0 0 1-1.6-1.7l-.5-.7-.3-.5z" opacity=".8"/><path d="M39.5 37.3a6.4 6.4 0 0 0-.4-3.4 7.6 7.6 0 0 0-2.4-3 9.9 9.9 0 0 0-1.4-.9c-.4-.1.4.1 1.4.9a5.5 5.5 0 0 1 1.4 1.3 7.4 7.4 0 0 0-1.7-1.8l-1.4-.7a6.6 6.6 0 0 0-6.3 1.5 8.1 8.1 0 0 0-1.1 1.3 8.5 8.5 0 0 0-.9 1.5 8.1 8.1 0 0 1 3.3-3.8 6.2 6.2 0 0 1 4.8-.6h-.2a6.6 6.6 0 0 0-5.1.9l-.8.6.8-.6a6.4 6.4 0 0 1 2.2-1h.8a2.7 2.7 0 0 1 .9 0h.6l.6.2.7.2h.3l-.5-.3-.9-.2a4.9 4.9 0 0 0-2.7 0 6.8 6.8 0 0 0-2.6 1.1 6.4 6.4 0 0 0-1.2 1.2 8.2 8.2 0 0 0-1.2 2.5 3.2 3.2 0 0 0-.3.9v.2A6.2 6.2 0 0 0 26 37c0 .4-.4 1.4-.3 1.5s.1.1.3.9.2.4.2.6a3.4 3.4 0 0 0 .3.8l.4.8.8 1a3.2 3.2 0 0 0 .8.9l.8.5.5.3h.2a12.5 12.5 0 0 0 2.9 1l1.9-.3a4.8 4.8 0 0 0 1.8-.7 10.6 10.6 0 0 0 2.3-1.7l.5-.6c.1-.1.2-.5.4-.8a.8.8 0 0 0 .2-.2c.1-.1.1 0 .1 0s0 .1.2 0a5 5 0 0 0 .5-1.3 6.6 6.6 0 0 0 .1-1.4h-.1v-.4h-.2c-.2 0-.4-.5-.6-.4s-.1.7-.3 1-.1-.1-.2-.2-.1.4-.1.3h-.2a10.9 10.9 0 0 1-1.1 2.7 3.3 3.3 0 0 0-.3.6c-.1.1-.2.3-.3.3s0 .2.1.3-1.8 1.2-1.7 1.4l-.5.3-.5.3a6.1 6.1 0 0 1-2.7.2 6.6 6.6 0 0 1-1.5-.5l-.5-.3a7.1 7.1 0 0 1-3.1-4.2 9.3 9.3 0 0 1 .2-5.2 6.7 6.7 0 0 1 4-4.2 5.9 5.9 0 0 1 5.2.8 6.6 6.6 0 0 1 2.5 3.2 6.7 6.7 0 0 1 .4 2.4z" opacity=".8"/><path d="M35.4 37.3a2.7 2.7 0 0 0 0-1.3 6.2 6.2 0 0 0-.8-1.2l-.6-.3c-.1-.1.2 0 .6.3l.5.6a3.5 3.5 0 0 0-.6-.9l-.6-.2a2.6 2.6 0 0 0-2.5.5 4.8 4.8 0 0 0-.9 1.1 3.4 3.4 0 0 1 1.4-1.5 2.4 2.4 0 0 1 2-.3h-.1a2.9 2.9 0 0 0-2.2.3l-.3.2.3-.2 1-.4h.7l.5.2h.4a2.5 2.5 0 0 0-1.7-.4 2.9 2.9 0 0 0-1.8 1 3.6 3.6 0 0 0-.4 1.1c0 .2-.1.3-.1.4 0 .3-.1.6-.1.8s-.3.6-.2.6 0 0 .1.4.1.2.1.3.2.3.4.6.3.6.7.8l.7.3 1.2.5a4.7 4.7 0 0 0 1.6-.4l1.1-.7c.1 0 .1-.1.2-.2s.1-.3.1-.4h.1a.3.3 0 0 0 .1-.2h.1c0 .1 0 .1.1.1l.3-.6v-.6h-.1v-.2h-.3c-.2-.1-.4-.3-.6-.2s-.1.3-.2.4h-.2c0 .1-.1.1-.2.1h-.1c-.1.3-.4.5-.5.8v.2h-.1c0 .1.1.1.1.2s-.6.3-.5.5-.1.2-.3.3h-.9l-.6-.2h-.1a2.1 2.1 0 0 1-1.1-1.5 6 6 0 0 1 0-1.9 2.3 2.3 0 0 1 1.4-1.6 2.1 2.1 0 0 1 1.9.3 2.3 2.3 0 0 1 .8 1.3 3.4 3.4 0 0 1 .1.9z" opacity=".8"/><path fill="#231f20" d="M33.7 1.9c-2.8 4.4-10.9 20.2-14.6 27L15.8 35l3.3-6.1c1-2 2.3-4.4 3.8-7.2l-5.2 9c-.9 1.8-1.8 3.6-2.8 5.4-3.8 7.4-7.6 14.5-11.4 21.8h-.2l11.1-21.2-.5.9L4.3 56l-1.2 2.2L4.3 56c1.4-2.8 2.7-5.5 4.3-8.5l3-5.7 2.3-4.2 1.4-2.7.4-.9c-.5.8-2.6 4.5-5.1 9.1C9.3 45.5 8 48 6.7 50.4l-1.9 3.5-2.5 4.8h7.9c3.4 0 6.5-.3 10.3-.3h4.4c2.5-.1 5.1.1 7 0s5.2.6 5.5.5.2-.1 3.5-.1l2.4-.2a46.4 46.4 0 0 0 6.4-.1c4.5-.1 5.4.2 9.5-.1h3.4L60.2 54c-2.2-4.4-3.8-7-5.2-10.5s-4.6-9.1-6.8-13.2-2.9-6-4.6-9.7l-1.2-2.5c-.2-.6-1.1-2-1.6-3l.2.2c-.2-.4-.5-1.1-.7-1.4s0-.3 0-.3.4.3.1-.3l-2.1-4.7-2.5-4.4-.3-.3-.8-1.2c-.2-.2-.3-.1-.5-.2s-1.5-1.5-1.6-.9 1.3 2.7 1.7 3.9-.3-.3-.6-.5c.8 1.5.7 1.7.3 1.1l.3.7-.3-.3c1.8 3.8 3.6 8.1 5.6 11.7l1.7 2.8a9.1 9.1 0 0 1 .8 1.8c.5.6.5.4.8.6 1.2 2.7 4 8.6 4.3 8.3 1.1 2.1 1.5 2.5 2.7 4.7l5.5 10.5 3.1 5.9a15.1 15.1 0 0 0 1.1 2.2l1 2H40.9c-6.7-.1-13.4 0-21 .1H4.7L9 48.7l4.6-8.8c3-5.8 5.9-11.1 8.4-16L32.7 4z" opacity=".8"/></svg>