<svg xmlns="http://www.w3.org/2000/svg" width="32" height="32" viewBox="0 0 32 32"><path d="M9.1 19.5a5 5 0 0 0 1.5 2 9.7 9.7 0 0 0 2.6 1.4l1.3.3-1.3-.3-1.3-.6a5.1 5.1 0 0 0 1.7.8l1.1.3a7.3 7.3 0 0 0 4.8-.6 12 12 0 0 0 2.1-1.3 8.3 8.3 0 0 1-3.2 1.7l-1.8.4a5.5 5.5 0 0 1-1.8-.1h.2a7 7 0 0 0 3.8-.3l.6-.3-.6.3-1.7.4h-1.2l-.9-.2h-.7l1 .2h.9a3.3 3.3 0 0 0 1 0 9.1 9.1 0 0 0 3-1 8.3 8.3 0 0 0 1.6-1.2c.1-.2.3-.3.4-.4s.1-.1.1-.2a4.4 4.4 0 0 0 .9-1.1l.2-.3-.3-.6v-.2c-.3 0-.1 0-.5-.5l-.3-.2a3.9 3.9 0 0 0-1-.8 11.9 11.9 0 0 0-1.5-.9l-.6-.2-.6-.2-2.2-.3a12.8 12.8 0 0 0-2.7.5l-1.9.7-.4.3-.5.4-.3.2s0-.1-.1 0l-.8.5-.6.8H9l-.2.3s.1.1 0 .1 0 .4.1.4l.6-.5v.2c.2-.3.2-.2.2-.1l1.9-1.4.4-.4h.3a.3.3 0 0 0 .1-.2l1-.4c.3-.1.6-.2.5-.3l.9-.3a7.1 7.1 0 0 1 2.1-.2l1.2.2h.4a8.2 8.2 0 0 1 2.6 1.4l1 .9.4.5.3.3h.1l-.6.8-.9.9a8.6 8.6 0 0 1-3.9 2l-1.1.2h-1l-2-.4a8.8 8.8 0 0 1-2.9-1.6 4.9 4.9 0 0 1-1.1-1.4z" opacity=".8"/><path d="M19.3 19.6a2.8 2.8 0 0 0-.2-1.7 4.7 4.7 0 0 0-1.2-1.5l-.7-.4c-.2-.1.2 0 .7.4l.7.7a2.6 2.6 0 0 0-.9-.9.9.9 0 0 0-.6-.3 3 3 0 0 0-3.1.7 3.1 3.1 0 0 0-1 1.3 4 4 0 0 1 1.6-1.8 3.3 3.3 0 0 1 2.4-.3.1.1 0 0 1-.1-.1 3.4 3.4 0 0 0-2.6.5l-.3.3.3-.3 1.1-.5h1.9a3 3 0 0 0-2-.3 4.4 4.4 0 0 0-1.9 1.2 6.1 6.1 0 0 0-.5 1.2l-.2.4v.2c0 .3-.1.6-.1.9s-.2.6-.1.7 0 0 .1.4v.3a2 2 0 0 0 .4.8c.3.5.3.6.8.9l.7.5 1.4.5a5.9 5.9 0 0 0 1.9-.5l1.1-.8.2-.3c.1-.1.1-.3.2-.4.1 0 .1-.1.1-.2h.1c0 .1 0 .1.1 0a1.4 1.4 0 0 0 .2-.6 1.7 1.7 0 0 0 .1-.7v-.2h-.1c-.1 0-.2-.3-.3-.2a1.3 1.3 0 0 1-.1.5h-.1c0 .2-.1.2-.1.1l-.6 1.4v.3h-.2v.2c-.2.2-.8.6-.8.7s-.2.2-.5.2a2 2 0 0 1-1.3.1l-.8-.2h-.2a3.5 3.5 0 0 1-1.5-2.1 4.6 4.6 0 0 1 .1-2.6 3.1 3.1 0 0 1 1.9-2 2.7 2.7 0 0 1 2.6.3 3 3 0 0 1 1.1 1.7c.2.6.2 1 .3 1.2z" opacity=".8"/><path d="M17.3 19.6a1.5 1.5 0 0 0-.1-.6.7.7 0 0 0-.4-.6l-.2-.2c-.1 0 .1 0 .2.2l.3.2-.3-.4h-.3a1.1 1.1 0 0 0-1.2.3.9.9 0 0 0-.4.5 1.4 1.4 0 0 1 1.6-.9 1.4 1.4 0 0 0-1.1.2h-.1a.1.1 0 0 1 .1-.1l.5-.3h.8a1 1 0 0 0-.9-.2c-.4 0-.8.3-.8.5s-.2.3-.2.5-.1.1-.1.2-.1.2 0 .3-.2.3-.2.3.1.1.1.2.1.1.1.2 0 .1.1.3.2.3.4.4.3.2.3.1l.6.3.8-.2.5-.3.2-.2v-.2h.2l.2-.3v-.3h-.5c-.1 0-.1.1-.1.2a.1.1 0 0 1-.1-.1.1.1 0 0 1-.1.1h-.1c0 .1-.2.2-.2.4l-.3.3a.1.1 0 0 1-.1.1h-.8a1.4 1.4 0 0 1-.5-1.7.9.9 0 0 1 .6-.7.9.9 0 0 1 1 .1 1.2 1.2 0 0 1 .4 1.1z" opacity=".8"/><path fill="#231f20" d="M16.4 2.1c-1.3 2.2-5.4 10-7.2 13.3l-1.6 3.1c-.3.6.4-.9 1.6-3.1s1.2-2.1 1.9-3.5l-2.6 4.5L7.2 19c-2 3.6-3.8 7.2-5.7 10.8h-.1l5.5-10.5-.3.4-4.7 9.1-.6 1.1.6-1.1c.7-1.4 1.4-2.7 2.1-4.2l1.5-2.8a21.2 21.2 0 0 0 1.1-2.1l.7-1.3.3-.4h-.1c-.2.4-1.3 2.2-2.5 4.5l-1.9 3.6c-.8 1.4-1.6 2.8-2.2 4.1h3.9l5.1-.2h5.6c.7-.1 2.6.3 2.7.2s.2-.1 1.8 0h4.3c2.2 0 2.7.1 4.7 0h1.7c-.5-.8-1.2-2.2-1.2-2.2-1.1-2.1-1.9-3.4-2.6-5.1s-2.2-4.5-3.3-6.6-1.4-2.9-2.3-4.8a6.7 6.7 0 0 0-.6-1.2 11.5 11.5 0 0 0-.8-1.5h.1a2.1 2.1 0 0 0-.3-.7c-.1-.2 0-.1 0-.1s.2.1 0-.2l-1-2.2-1.2-2.3-.2-.2-.4-.6h-.2c-.2.1-.8-.7-.8-.5s.6 1.4.8 2l-.3-.2c.4.7.4.8.2.5v.3h-.1a61.9 61.9 0 0 0 2.8 5.8c.2.3.5 1 .8 1.4a5.9 5.9 0 0 0 .4.8c.2.3.2.2.4.3s2 4.3 2.1 4.1.8 1.2 1.3 2.3l2.7 5.2c.6 1 1.1 2 1.6 3l.5 1a9.3 9.3 0 0 1 .5 1H20c-3.3-.1-6.6-.1-10.4 0H2.1l2.1-4.2L6.5 21l4.2-8 5.2-9.8z" opacity=".8"/></svg>