<svg xmlns="http://www.w3.org/2000/svg" width="16" height="16" viewBox="0 0 16 16"><path d="M4.7 9.8a1.8 1.8 0 0 0 .7 1l1.3.7-.7-.3.8.4h.6a3.8 3.8 0 0 0 2.3-.3l1-.6a5.5 5.5 0 0 1-1.5.8 3.7 3.7 0 0 1-1.8.1h.1a2.7 2.7 0 0 0 1.8-.1l-.8.2H7.2a4.2 4.2 0 0 0 1.4.1 2.9 2.9 0 0 0 1.4-.4l.8-.6.2-.2h.1l.4-.5v-.3l-.2-.4-.2-.2H11l-.5-.4-.7-.4h-.6l-1-.2a7 7 0 0 0-1.4.3l-.9.3h-.2l-.2.2h-.2l-.4.3-.3.3h-.1c.1 0 0 .2.1.2l.3-.2H5l.9-.6.2-.2h.2l.7-.4.4-.2H9c.1 0 .2 0 .2.1a5.2 5.2 0 0 1 1.3.6l.4.5.3.2v.2l-.3.4a.8.8 0 0 1-.4.4 3.5 3.5 0 0 1-1.9 1h-1l-1-.2A2.8 2.8 0 0 1 4.8 10z" opacity=".8"/><path d="M9.6 9.8a3.2 3.2 0 0 0-.1-.8 1.4 1.4 0 0 0-.6-.7l-.3-.2.3.2.4.3-.5-.4-.3-.2a1.7 1.7 0 0 0-1.5.4l-.5.7a1.8 1.8 0 0 1 2-1.1h-.1a1.7 1.7 0 0 0-1.2.2l.5-.2h.9c0-.1-.4-.3-.9-.2a1.4 1.4 0 0 0-.9.6c-.2.2-.2.4-.3.6s-.1.1-.1.2-.1.3 0 .4v.3c.1.1 0 .1.1.3l.2.4.4.4.3.2.7.3.9-.2a1.2 1.2 0 0 0 .5-.5h.2v-.2c0 .1 0 .1.1 0V10h-.1a.4.4 0 0 1-.1.3h-.1c0 .2-.2.5-.2.6v.2h-.2l-.4.3h-.9l-.3-.2h-.1a1.9 1.9 0 0 1-.7-2.3 1.8 1.8 0 0 1 .9-1 1.9 1.9 0 0 1 1.3.2 2 2 0 0 1 .7 1.4z" opacity=".8"/><path d="M8.6 9.8c.1-.1 0-.4-.2-.5a.1.1 0 0 0-.1-.1h.2-.2c-.2 0-.5 0-.6.2l-.3.2a.8.8 0 0 1 .9-.4h-.1c-.1-.1-.3 0-.5.1h.2a.4.4 0 0 0-.4.3c-.1 0-.1.1-.1.2s-.1.2 0 .2 0 0 0 .1h.1v.2l.2.2h.8l.3-.2h.1c.1.1.1.1.1 0 .1 0 .1-.1 0-.1h-.5v.2h-.7a.8.8 0 0 1-.2-.8c0-.2.2-.3.3-.4a.4.4 0 0 1 .5.1.6.6 0 0 1 .2.5z" opacity=".8"/><path fill="#231f20" d="M8.2 1.4c-.7 1.1-2.6 4.8-3.5 6.4s-.6 1.1-.8 1.5a12.3 12.3 0 0 0 .8-1.5 8.7 8.7 0 0 0 .9-1.7L4.4 8.3c-.2.4-.5.8-.7 1.3L1 14.8l2.6-5.1v.2l-2.4 4.4-.3.5.3-.5a18.6 18.6 0 0 1 1-2l.7-1.4.6-1 .3-.6v-.2l-1.1 2.2-2 3.7h7.1a4.9 4.9 0 0 1 1.3.1h6l-.6-1c-.5-1.1-.9-1.7-1.2-2.5a31.8 31.8 0 0 1-1.6-3.2 15.8 15.8 0 0 1-1.1-2.3l-.3-.6-.4-.7h.1l-.2-.3s.1 0 0-.1A11.7 11.7 0 0 0 9.3 3l-.6-1c0-.1 0-.1-.1-.1v-.3h-.3c0 .1-.3-.3-.4-.2l.4 1h-.1v.4h.1c.4.9.8 1.9 1.3 2.8a2.1 2.1 0 0 1 .4.4.8.8 0 0 1 .2.4h.2a17.1 17.1 0 0 0 1 2l.7 1.1 1.3 2.5.7 1.5.3.5c.1.1.1.3.2.4H1.3l2.1-4.1 2-3.8L8 1.9z" opacity=".8"/></svg>