<svg id="Logo" xmlns="http://www.w3.org/2000/svg" width="31.4" height="27.2" viewBox="0 0 31.4 27.2"><title>Artboard 1</title><g id="Triangle"><path d="M15.7,2.5,29.3,26H2.1L15.7,2.5m0-2.5L0,27.2H31.4L15.7,0Z" fill="#fff"/></g><g id="Triangle-2" data-name="Triangle"><path d="M24.4,4.2,15.7,19.3,7,4.2H24.4m1.3-.7H5.6L15.7,20.8l10-17.3Z" fill="#fff"/></g><path id="Eye" d="M17.7,23.2s5,6.4,10.5,0h0c-5.5-6.4-10.5,0-10.5,0Z" fill="none" stroke="#fff" stroke-miterlimit="10" stroke-width="0.64"/><path id="Eye-2" data-name="Eye" d="M3.2,23.2s5,6.4,10.5,0h0c-5.5-6.4-10.5,0-10.5,0Z" fill="none" stroke="#fff" stroke-miterlimit="10" stroke-width="0.64"/><g id="Triangle-3" data-name="Triangle"><path d="M27.6,4.5,15.7,25.1,3.8,4.5H27.6m1.8-1H2L15.7,27.2,29.4,3.5Z" fill="#fff"/></g><g id="Iris"><path d="M15.7,8.3a2.5,2.5,0,0,1,0,4.9,2.5,2.5,0,1,1,0-4.9m0-.5a3,3,0,1,0,2.9,2.9,2.9,2.9,0,0,0-2.9-2.9Z" fill="#fff"/></g><g id="Pupil"><circle cx="15.7" cy="10.7" r="1.4" fill="#f96552"/></g><path id="Eye-3" data-name="Eye" d="M10.4,10.7s5,6.4,10.5,0h0c-5.5-6.4-10.5,0-10.5,0Z" fill="none" stroke="#fff" stroke-miterlimit="10" stroke-width="0.64"/><g id="Iris-2" data-name="Iris"><path d="M8.5,20.8a2.5,2.5,0,0,1,0,4.9,2.4,2.4,0,0,1-2.4-2.4,2.4,2.4,0,0,1,2.4-2.5m0-.5a3.1,3.1,0,0,0-3,3,3,3,0,0,0,3,2.9,2.9,2.9,0,0,0,2.9-2.9,3,3,0,0,0-2.9-3Z" fill="#fff"/></g><g id="Pupil-2" data-name="Pupil"><circle cx="8.5" cy="23.3" r="1.4" fill="#f96552"/></g><g id="Iris-3" data-name="Iris"><path d="M22.9,20.8a2.5,2.5,0,1,1,0,4.9,2.5,2.5,0,0,1,0-4.9m0-.5a3,3,0,0,0-2.9,3,3,3,0,0,0,5.9,0,3,3,0,0,0-3-3Z" fill="#fff"/></g><g id="Pupil-3" data-name="Pupil"><circle cx="22.9" cy="23.3" r="1.4" fill="#f96552"/></g></svg>